<svg id="Layer_2" data-name="Layer 2" xmlns="http://www.w3.org/2000/svg" viewBox="0 0 46.47 29.78"><defs><style>.cls-1{fill:#fa9905;}.cls-1,.cls-2{stroke:#231f20;stroke-miterlimit:10;stroke-width:0.2px;}.cls-2{fill:none;}</style></defs><path class="cls-1" d="M162,214.53l-32.23.87L119,231.61l20.92,12.49,25.29-10.78ZM141,231.83l-7.42-4.12,2.6-4.38,16.56-.74.36,4.32Z" transform="translate(-118.86 -214.43)"/><polygon class="cls-2" points="13.65 1.9 6.62 12.1 21.5 20.7 41.01 12.78 39.45 0.71 13.65 1.9"/><polyline class="cls-2" points="17.3 8.9 13.65 1.9 10.94 0.97"/><polyline class="cls-2" points="0.14 17.18 6.62 12.1 14.7 13.28"/><polyline class="cls-2" points="21.06 29.67 21.5 20.7 22.13 17.39"/><polyline class="cls-2" points="33.86 8.16 39.45 0.71 43.17 0.1"/><polyline class="cls-2" points="46.35 18.89 41.01 12.78 34.23 12.48"/></svg>